# xmcd
#
# Track frame offsets:
#	150
#	17625
#	38025
#	66825
#	84975
#	110850
#	133050
#	181875
#	210000
#
# Disc length: 3351 seconds
#
# Revision: 1
# Processed by: cddbd v1.5.1PL2 Copyright (c) Steve Scherf et al.
# Submitted via: EasyCDDAExtractor 9.0.0.1
#
DISCID=700d1509
DTITLE=Blue Oyster Cult - Old Waldorf San Fransisco 17-03-79 Early Show Disc 1
DYEAR=1979
DGENRE=Hard Rock
TTITLE0=Crowd - Intro Music
TTITLE1=Intro - Stairway To The Stars
TTITLE2=ETI (Extra Terrestrial Intelligence)
TTITLE3=You're Not The One (I Was Looking For)
TTITLE4=The Great Sun Jester
TTITLE5=Cities On Flame With Rock And Roll
TTITLE6=Maserati GT (I Ain't Got You)
TTITLE7=Gun
TTITLE8=Astronomy
EXTD=
EXTT0=
EXTT1=
EXTT2=
EXTT3=
EXTT4=
EXTT5=
EXTT6=
EXTT7=
EXTT8=
PLAYORDER=
